<svg width="131" height="40" viewBox="0 0 131 40" fill="none" xmlns="http://www.w3.org/2000/svg">
<path d="M31.5852 14.1122V24.8849C31.5765 26.7689 30.8572 28.5731 29.5835 29.9055C28.3099 31.2378 26.5849 31.9905 24.7836 32C22.6613 32 20.9245 31.1502 19.573 29.4506C18.2061 31.1512 16.4611 32.001 14.3379 32C12.5365 31.9905 10.8116 31.2378 9.53793 29.9055C8.2643 28.5731 7.54496 26.7689 7.53625 24.8849V14.1122H10.7196V24.8849C10.7216 25.8879 11.1034 26.8493 11.7815 27.5585C12.4596 28.2678 13.3788 28.6671 14.3379 28.6691C14.8119 28.6774 15.2827 28.5857 15.722 28.3995C16.1614 28.2132 16.5603 27.9361 16.8949 27.5849C17.2376 27.2376 17.5102 26.822 17.6966 26.3627C17.8831 25.9033 17.9796 25.4096 17.9805 24.9105V14.1122H21.1654V24.9105C21.1581 25.4085 21.2486 25.9027 21.4311 26.3627C21.6136 26.8226 21.8843 27.2386 22.2265 27.5849C22.5612 27.9361 22.9601 28.2132 23.3994 28.3995C23.8388 28.5857 24.3096 28.6774 24.7836 28.6691C25.7429 28.6679 26.6625 28.2688 27.3408 27.5594C28.0191 26.85 28.4007 25.8882 28.4018 24.8849V14.1122H31.5852Z" fill="black"/>
<path d="M43.5644 24.7253C43.9058 25.8506 44.5716 26.8378 45.4706 27.5518C46.3933 28.2822 47.5214 28.6725 48.6785 28.6616C49.6633 28.6529 50.6345 28.4206 51.525 27.9809C52.5233 27.5091 53.2551 26.9118 53.7207 26.189L56.3498 28.0562C55.5895 29.2338 54.4895 30.184 53.0497 30.9068C51.6922 31.6119 50.1986 31.9833 48.6828 31.9925C47.5558 32.0109 46.437 31.7874 45.3957 31.336C44.3544 30.8846 43.4126 30.2147 42.6285 29.3678C40.9554 27.62 40.1194 25.5179 40.1204 23.0614C40.1223 20.6882 41.0246 18.4129 42.6292 16.735C44.2338 15.0571 46.4095 14.1138 48.6785 14.1122C51.0273 14.1122 53.0377 14.9866 54.7098 16.7353C55.5196 17.5545 56.1605 18.5383 56.5931 19.6263C57.0257 20.7142 57.2408 21.8832 57.2252 23.0614C57.2257 23.6115 57.1775 24.1604 57.0812 24.7012L43.5644 24.7253ZM48.6785 17.4356C47.5213 17.4239 46.393 17.8143 45.4706 18.5454C44.567 19.2649 43.9006 20.2614 43.5644 21.3959H53.7696C53.434 20.2615 52.768 19.2649 51.8648 18.5454C50.9496 17.8165 49.8288 17.4261 48.6785 17.4356Z" fill="black"/>
<path d="M65.5313 31.9925V23.0614C65.5135 21.8825 65.7269 20.7123 66.1583 19.623C66.5896 18.5336 67.2299 17.5483 68.0394 16.7278C69.7125 14.9841 71.7229 14.1122 74.0707 14.1122C76.342 14.1122 78.5203 15.0558 80.1263 16.7355C81.7324 18.4152 82.6346 20.6934 82.6346 23.0689V32H79.4498V23.0614C79.4498 21.5725 78.8843 20.1446 77.8777 19.0918C76.8711 18.0391 75.5058 17.4476 74.0823 17.4476C72.6587 17.4476 71.2934 18.0391 70.2868 19.0918C69.2802 20.1446 68.7147 21.5725 68.7147 23.0614V31.9925H65.5313Z" fill="black"/>
<path d="M90.9467 8H94.13V11.2285H90.9467V8ZM90.9467 14.1047H94.13V31.9925H90.9467V14.1047Z" fill="black"/>
<path d="M122.464 14.1122L115.227 30.327C114.747 31.4363 113.919 31.9915 112.742 31.9925C111.566 31.9935 110.73 31.4383 110.234 30.327L102.998 14.1122H106.52L112.333 27.1301C112.369 27.2127 112.427 27.2827 112.499 27.3318C112.572 27.381 112.657 27.4071 112.743 27.4071C112.83 27.4071 112.914 27.381 112.987 27.3318C113.06 27.2827 113.117 27.2127 113.153 27.1301L118.967 14.1122H122.464Z" fill="black"/>
</svg>
