<svg width="16" height="24" viewBox="0 0 16 24" fill="none" xmlns="http://www.w3.org/2000/svg">
<path d="M13.8125 0.75H2.1875C1.78981 0.750447 1.40854 0.908625 1.12733 1.18983C0.846125 1.47104 0.687947 1.85231 0.6875 2.25V21.75C0.687947 22.1477 0.846125 22.529 1.12733 22.8102C1.40854 23.0914 1.78981 23.2496 2.1875 23.25H13.8125C14.2102 23.2496 14.5915 23.0914 14.8727 22.8102C15.1539 22.529 15.3121 22.1477 15.3125 21.75V2.25C15.3121 1.85231 15.1539 1.47104 14.8727 1.18983C14.5915 0.908625 14.2102 0.750447 13.8125 0.75ZM13.8125 2.25V3.75H2.1875V2.25H13.8125ZM13.8125 5.25L13.813 15.75H2.1875V5.25H13.8125ZM13.8125 21.75H2.1875V17.25H13.8132V21.75H13.8125Z" fill="#767676"/>
</svg>
